<mxfile host="65bd71144e">
    <diagram id="aqkya4TFRdpiTSBKbrii" name="Flowchart">
        <mxGraphModel dx="1074" dy="717" grid="1" gridSize="10" guides="1" tooltips="1" connect="1" arrows="1" fold="1" page="1" pageScale="1" pageWidth="827" pageHeight="1169" math="0" shadow="0">
            <root>
                <mxCell id="7Z-LrOooxTyzb09muiCP-0"/>
                <mxCell id="7Z-LrOooxTyzb09muiCP-1" parent="7Z-LrOooxTyzb09muiCP-0"/>
                <mxCell id="7Z-LrOooxTyzb09muiCP-7" value="" style="edgeStyle=none;html=1;" parent="7Z-LrOooxTyzb09muiCP-1" source="7Z-LrOooxTyzb09muiCP-2" target="7Z-LrOooxTyzb09muiCP-3" edge="1">
                    <mxGeometry relative="1" as="geometry"/>
                </mxCell>
                <mxCell id="7Z-LrOooxTyzb09muiCP-2" value="Start" style="strokeWidth=2;html=1;shape=mxgraph.flowchart.terminator;whiteSpace=wrap;" parent="7Z-LrOooxTyzb09muiCP-1" vertex="1">
                    <mxGeometry x="364" y="80" width="100" height="60" as="geometry"/>
                </mxCell>
                <mxCell id="lT9-O1-aTcIDiIvxCzd--1" value="" style="edgeStyle=none;html=1;" edge="1" parent="7Z-LrOooxTyzb09muiCP-1" source="7Z-LrOooxTyzb09muiCP-3" target="lT9-O1-aTcIDiIvxCzd--0">
                    <mxGeometry relative="1" as="geometry"/>
                </mxCell>
                <mxCell id="7Z-LrOooxTyzb09muiCP-3" value="Get x_coordinate" style="shape=parallelogram;html=1;strokeWidth=2;perimeter=parallelogramPerimeter;whiteSpace=wrap;rounded=1;arcSize=12;size=0.23;" parent="7Z-LrOooxTyzb09muiCP-1" vertex="1">
                    <mxGeometry x="341" y="170" width="146" height="60" as="geometry"/>
                </mxCell>
                <mxCell id="7Z-LrOooxTyzb09muiCP-6" value="Stop" style="strokeWidth=2;html=1;shape=mxgraph.flowchart.terminator;whiteSpace=wrap;" parent="7Z-LrOooxTyzb09muiCP-1" vertex="1">
                    <mxGeometry x="364" y="780" width="100" height="60" as="geometry"/>
                </mxCell>
                <mxCell id="lT9-O1-aTcIDiIvxCzd--3" value="" style="edgeStyle=none;html=1;" edge="1" parent="7Z-LrOooxTyzb09muiCP-1" source="lT9-O1-aTcIDiIvxCzd--0" target="lT9-O1-aTcIDiIvxCzd--2">
                    <mxGeometry relative="1" as="geometry"/>
                </mxCell>
                <mxCell id="lT9-O1-aTcIDiIvxCzd--0" value="Get y_coordinate" style="shape=parallelogram;html=1;strokeWidth=2;perimeter=parallelogramPerimeter;whiteSpace=wrap;rounded=1;arcSize=12;size=0.23;" vertex="1" parent="7Z-LrOooxTyzb09muiCP-1">
                    <mxGeometry x="326" y="260" width="176" height="60" as="geometry"/>
                </mxCell>
                <mxCell id="lT9-O1-aTcIDiIvxCzd--2" value="if x_coordinate &amp;gt; 0" style="strokeWidth=2;html=1;shape=mxgraph.flowchart.decision;whiteSpace=wrap;" vertex="1" parent="7Z-LrOooxTyzb09muiCP-1">
                    <mxGeometry x="321" y="350" width="186" height="100" as="geometry"/>
                </mxCell>
                <mxCell id="lT9-O1-aTcIDiIvxCzd--6" value="" style="edgeStyle=none;html=1;" edge="1" parent="7Z-LrOooxTyzb09muiCP-1" source="lT9-O1-aTcIDiIvxCzd--4" target="lT9-O1-aTcIDiIvxCzd--5">
                    <mxGeometry relative="1" as="geometry"/>
                </mxCell>
                <mxCell id="lT9-O1-aTcIDiIvxCzd--17" style="edgeStyle=orthogonalEdgeStyle;rounded=0;html=1;entryX=0.5;entryY=0;entryDx=0;entryDy=0;entryPerimeter=0;" edge="1" parent="7Z-LrOooxTyzb09muiCP-1" source="lT9-O1-aTcIDiIvxCzd--4" target="lT9-O1-aTcIDiIvxCzd--7">
                    <mxGeometry relative="1" as="geometry">
                        <Array as="points">
                            <mxPoint x="609" y="400"/>
                            <mxPoint x="609" y="330"/>
                            <mxPoint x="1063" y="330"/>
                        </Array>
                    </mxGeometry>
                </mxCell>
                <mxCell id="lT9-O1-aTcIDiIvxCzd--4" value="if x_coordinate &amp;gt; 0" style="strokeWidth=2;html=1;shape=mxgraph.flowchart.decision;whiteSpace=wrap;" vertex="1" parent="7Z-LrOooxTyzb09muiCP-1">
                    <mxGeometry x="321" y="350" width="186" height="100" as="geometry"/>
                </mxCell>
                <mxCell id="lT9-O1-aTcIDiIvxCzd--14" style="edgeStyle=orthogonalEdgeStyle;rounded=0;html=1;entryX=0.5;entryY=0;entryDx=0;entryDy=0;entryPerimeter=0;" edge="1" parent="7Z-LrOooxTyzb09muiCP-1" source="lT9-O1-aTcIDiIvxCzd--5" target="lT9-O1-aTcIDiIvxCzd--13">
                    <mxGeometry relative="1" as="geometry">
                        <Array as="points">
                            <mxPoint x="550" y="530"/>
                            <mxPoint x="550" y="460"/>
                            <mxPoint x="683" y="460"/>
                        </Array>
                    </mxGeometry>
                </mxCell>
                <mxCell id="lT9-O1-aTcIDiIvxCzd--24" value="" style="edgeStyle=orthogonalEdgeStyle;rounded=0;html=1;" edge="1" parent="7Z-LrOooxTyzb09muiCP-1" source="lT9-O1-aTcIDiIvxCzd--5" target="lT9-O1-aTcIDiIvxCzd--18">
                    <mxGeometry relative="1" as="geometry"/>
                </mxCell>
                <mxCell id="lT9-O1-aTcIDiIvxCzd--5" value="if y_coordinate &amp;gt; 0" style="strokeWidth=2;html=1;shape=mxgraph.flowchart.decision;whiteSpace=wrap;" vertex="1" parent="7Z-LrOooxTyzb09muiCP-1">
                    <mxGeometry x="321" y="480" width="186" height="100" as="geometry"/>
                </mxCell>
                <mxCell id="lT9-O1-aTcIDiIvxCzd--10" value="" style="edgeStyle=orthogonalEdgeStyle;rounded=0;html=1;" edge="1" parent="7Z-LrOooxTyzb09muiCP-1" source="lT9-O1-aTcIDiIvxCzd--7" target="lT9-O1-aTcIDiIvxCzd--9">
                    <mxGeometry relative="1" as="geometry"/>
                </mxCell>
                <mxCell id="lT9-O1-aTcIDiIvxCzd--32" style="edgeStyle=orthogonalEdgeStyle;rounded=0;html=1;entryX=0.5;entryY=0;entryDx=0;entryDy=0;" edge="1" parent="7Z-LrOooxTyzb09muiCP-1" source="lT9-O1-aTcIDiIvxCzd--7" target="lT9-O1-aTcIDiIvxCzd--31">
                    <mxGeometry relative="1" as="geometry"/>
                </mxCell>
                <mxCell id="lT9-O1-aTcIDiIvxCzd--7" value="if x_coordinate &amp;lt; 0" style="strokeWidth=2;html=1;shape=mxgraph.flowchart.decision;whiteSpace=wrap;" vertex="1" parent="7Z-LrOooxTyzb09muiCP-1">
                    <mxGeometry x="970" y="350" width="186" height="100" as="geometry"/>
                </mxCell>
                <mxCell id="lT9-O1-aTcIDiIvxCzd--16" style="edgeStyle=orthogonalEdgeStyle;rounded=0;html=1;entryX=0.5;entryY=0;entryDx=0;entryDy=0;entryPerimeter=0;" edge="1" parent="7Z-LrOooxTyzb09muiCP-1" source="lT9-O1-aTcIDiIvxCzd--9" target="lT9-O1-aTcIDiIvxCzd--15">
                    <mxGeometry relative="1" as="geometry">
                        <Array as="points">
                            <mxPoint x="1200" y="530"/>
                            <mxPoint x="1200" y="460"/>
                            <mxPoint x="1323" y="460"/>
                        </Array>
                    </mxGeometry>
                </mxCell>
                <mxCell id="lT9-O1-aTcIDiIvxCzd--22" value="" style="edgeStyle=orthogonalEdgeStyle;rounded=0;html=1;" edge="1" parent="7Z-LrOooxTyzb09muiCP-1" source="lT9-O1-aTcIDiIvxCzd--9" target="lT9-O1-aTcIDiIvxCzd--20">
                    <mxGeometry relative="1" as="geometry"/>
                </mxCell>
                <mxCell id="lT9-O1-aTcIDiIvxCzd--9" value="if y_coordinate &amp;lt; 0" style="strokeWidth=2;html=1;shape=mxgraph.flowchart.decision;whiteSpace=wrap;" vertex="1" parent="7Z-LrOooxTyzb09muiCP-1">
                    <mxGeometry x="970" y="480" width="186" height="100" as="geometry"/>
                </mxCell>
                <mxCell id="lT9-O1-aTcIDiIvxCzd--25" value="" style="edgeStyle=orthogonalEdgeStyle;rounded=0;html=1;" edge="1" parent="7Z-LrOooxTyzb09muiCP-1" source="lT9-O1-aTcIDiIvxCzd--13" target="lT9-O1-aTcIDiIvxCzd--19">
                    <mxGeometry relative="1" as="geometry"/>
                </mxCell>
                <mxCell id="lT9-O1-aTcIDiIvxCzd--29" style="edgeStyle=orthogonalEdgeStyle;rounded=0;html=1;entryX=0.5;entryY=0;entryDx=0;entryDy=0;" edge="1" parent="7Z-LrOooxTyzb09muiCP-1" source="lT9-O1-aTcIDiIvxCzd--13" target="lT9-O1-aTcIDiIvxCzd--26">
                    <mxGeometry relative="1" as="geometry"/>
                </mxCell>
                <mxCell id="lT9-O1-aTcIDiIvxCzd--13" value="if y_coordinate &amp;lt; 0" style="strokeWidth=2;html=1;shape=mxgraph.flowchart.decision;whiteSpace=wrap;" vertex="1" parent="7Z-LrOooxTyzb09muiCP-1">
                    <mxGeometry x="590" y="480" width="186" height="100" as="geometry"/>
                </mxCell>
                <mxCell id="lT9-O1-aTcIDiIvxCzd--23" value="" style="edgeStyle=orthogonalEdgeStyle;rounded=0;html=1;" edge="1" parent="7Z-LrOooxTyzb09muiCP-1" source="lT9-O1-aTcIDiIvxCzd--15" target="lT9-O1-aTcIDiIvxCzd--21">
                    <mxGeometry relative="1" as="geometry"/>
                </mxCell>
                <mxCell id="lT9-O1-aTcIDiIvxCzd--30" style="edgeStyle=orthogonalEdgeStyle;rounded=0;html=1;" edge="1" parent="7Z-LrOooxTyzb09muiCP-1" source="lT9-O1-aTcIDiIvxCzd--15" target="lT9-O1-aTcIDiIvxCzd--27">
                    <mxGeometry relative="1" as="geometry">
                        <Array as="points">
                            <mxPoint x="1499" y="530"/>
                        </Array>
                    </mxGeometry>
                </mxCell>
                <mxCell id="lT9-O1-aTcIDiIvxCzd--15" value="if y_coordinate &amp;lt; 0" style="strokeWidth=2;html=1;shape=mxgraph.flowchart.decision;whiteSpace=wrap;" vertex="1" parent="7Z-LrOooxTyzb09muiCP-1">
                    <mxGeometry x="1230" y="480" width="186" height="100" as="geometry"/>
                </mxCell>
                <mxCell id="lT9-O1-aTcIDiIvxCzd--33" style="edgeStyle=orthogonalEdgeStyle;rounded=0;html=1;entryX=0.5;entryY=0;entryDx=0;entryDy=0;entryPerimeter=0;" edge="1" parent="7Z-LrOooxTyzb09muiCP-1" source="lT9-O1-aTcIDiIvxCzd--18" target="7Z-LrOooxTyzb09muiCP-6">
                    <mxGeometry relative="1" as="geometry"/>
                </mxCell>
                <mxCell id="lT9-O1-aTcIDiIvxCzd--18" value="Display &quot;1st quadrant&quot;" style="shape=parallelogram;html=1;strokeWidth=2;perimeter=parallelogramPerimeter;whiteSpace=wrap;rounded=1;arcSize=12;size=0.23;" vertex="1" parent="7Z-LrOooxTyzb09muiCP-1">
                    <mxGeometry x="331" y="610" width="166" height="60" as="geometry"/>
                </mxCell>
                <mxCell id="lT9-O1-aTcIDiIvxCzd--34" style="edgeStyle=orthogonalEdgeStyle;rounded=0;html=1;entryX=0.5;entryY=0;entryDx=0;entryDy=0;entryPerimeter=0;" edge="1" parent="7Z-LrOooxTyzb09muiCP-1" source="lT9-O1-aTcIDiIvxCzd--19" target="7Z-LrOooxTyzb09muiCP-6">
                    <mxGeometry relative="1" as="geometry">
                        <Array as="points">
                            <mxPoint x="683" y="710"/>
                            <mxPoint x="414" y="710"/>
                        </Array>
                    </mxGeometry>
                </mxCell>
                <mxCell id="lT9-O1-aTcIDiIvxCzd--19" value="Display &quot;4th quadrant&quot;" style="shape=parallelogram;html=1;strokeWidth=2;perimeter=parallelogramPerimeter;whiteSpace=wrap;rounded=1;arcSize=12;size=0.23;" vertex="1" parent="7Z-LrOooxTyzb09muiCP-1">
                    <mxGeometry x="600" y="610" width="166" height="60" as="geometry"/>
                </mxCell>
                <mxCell id="lT9-O1-aTcIDiIvxCzd--36" style="edgeStyle=orthogonalEdgeStyle;rounded=0;html=1;entryX=0.5;entryY=0;entryDx=0;entryDy=0;entryPerimeter=0;" edge="1" parent="7Z-LrOooxTyzb09muiCP-1" source="lT9-O1-aTcIDiIvxCzd--20" target="7Z-LrOooxTyzb09muiCP-6">
                    <mxGeometry relative="1" as="geometry">
                        <Array as="points">
                            <mxPoint x="1063" y="710"/>
                            <mxPoint x="414" y="710"/>
                        </Array>
                    </mxGeometry>
                </mxCell>
                <mxCell id="lT9-O1-aTcIDiIvxCzd--20" value="Display &quot;3rd quadrant&quot;" style="shape=parallelogram;html=1;strokeWidth=2;perimeter=parallelogramPerimeter;whiteSpace=wrap;rounded=1;arcSize=12;size=0.23;" vertex="1" parent="7Z-LrOooxTyzb09muiCP-1">
                    <mxGeometry x="980" y="610" width="166" height="60" as="geometry"/>
                </mxCell>
                <mxCell id="lT9-O1-aTcIDiIvxCzd--37" style="edgeStyle=orthogonalEdgeStyle;rounded=0;html=1;entryX=0.5;entryY=0;entryDx=0;entryDy=0;entryPerimeter=0;" edge="1" parent="7Z-LrOooxTyzb09muiCP-1" source="lT9-O1-aTcIDiIvxCzd--21" target="7Z-LrOooxTyzb09muiCP-6">
                    <mxGeometry relative="1" as="geometry">
                        <Array as="points">
                            <mxPoint x="1323" y="710"/>
                            <mxPoint x="414" y="710"/>
                        </Array>
                    </mxGeometry>
                </mxCell>
                <mxCell id="lT9-O1-aTcIDiIvxCzd--21" value="Display &quot;2nd quadrant&quot;" style="shape=parallelogram;html=1;strokeWidth=2;perimeter=parallelogramPerimeter;whiteSpace=wrap;rounded=1;arcSize=12;size=0.23;" vertex="1" parent="7Z-LrOooxTyzb09muiCP-1">
                    <mxGeometry x="1240" y="610" width="166" height="60" as="geometry"/>
                </mxCell>
                <mxCell id="lT9-O1-aTcIDiIvxCzd--35" style="edgeStyle=orthogonalEdgeStyle;rounded=0;html=1;entryX=0.5;entryY=0;entryDx=0;entryDy=0;entryPerimeter=0;" edge="1" parent="7Z-LrOooxTyzb09muiCP-1" source="lT9-O1-aTcIDiIvxCzd--26" target="7Z-LrOooxTyzb09muiCP-6">
                    <mxGeometry relative="1" as="geometry">
                        <Array as="points">
                            <mxPoint x="863" y="710"/>
                            <mxPoint x="414" y="710"/>
                        </Array>
                    </mxGeometry>
                </mxCell>
                <mxCell id="lT9-O1-aTcIDiIvxCzd--26" value="Display &quot;on y axis&quot;" style="shape=parallelogram;html=1;strokeWidth=2;perimeter=parallelogramPerimeter;whiteSpace=wrap;rounded=1;arcSize=12;size=0.23;" vertex="1" parent="7Z-LrOooxTyzb09muiCP-1">
                    <mxGeometry x="780" y="610" width="166" height="60" as="geometry"/>
                </mxCell>
                <mxCell id="lT9-O1-aTcIDiIvxCzd--38" style="edgeStyle=orthogonalEdgeStyle;rounded=0;html=1;entryX=0.5;entryY=0;entryDx=0;entryDy=0;entryPerimeter=0;" edge="1" parent="7Z-LrOooxTyzb09muiCP-1" source="lT9-O1-aTcIDiIvxCzd--27" target="7Z-LrOooxTyzb09muiCP-6">
                    <mxGeometry relative="1" as="geometry">
                        <mxPoint x="880" y="802" as="targetPoint"/>
                        <Array as="points">
                            <mxPoint x="1498" y="710"/>
                            <mxPoint x="414" y="710"/>
                        </Array>
                    </mxGeometry>
                </mxCell>
                <mxCell id="lT9-O1-aTcIDiIvxCzd--27" value="Display &quot;on y axis&quot;" style="shape=parallelogram;html=1;strokeWidth=2;perimeter=parallelogramPerimeter;whiteSpace=wrap;rounded=1;arcSize=12;size=0.23;" vertex="1" parent="7Z-LrOooxTyzb09muiCP-1">
                    <mxGeometry x="1415" y="610" width="166" height="60" as="geometry"/>
                </mxCell>
                <mxCell id="lT9-O1-aTcIDiIvxCzd--39" style="edgeStyle=orthogonalEdgeStyle;rounded=0;html=1;entryX=0.5;entryY=0;entryDx=0;entryDy=0;entryPerimeter=0;" edge="1" parent="7Z-LrOooxTyzb09muiCP-1" source="lT9-O1-aTcIDiIvxCzd--31" target="7Z-LrOooxTyzb09muiCP-6">
                    <mxGeometry relative="1" as="geometry">
                        <mxPoint x="970" y="790" as="targetPoint"/>
                        <Array as="points">
                            <mxPoint x="1683" y="710"/>
                            <mxPoint x="414" y="710"/>
                        </Array>
                    </mxGeometry>
                </mxCell>
                <mxCell id="lT9-O1-aTcIDiIvxCzd--31" value="Display &quot;on x axis&quot;" style="shape=parallelogram;html=1;strokeWidth=2;perimeter=parallelogramPerimeter;whiteSpace=wrap;rounded=1;arcSize=12;size=0.23;" vertex="1" parent="7Z-LrOooxTyzb09muiCP-1">
                    <mxGeometry x="1600" y="610" width="166" height="60" as="geometry"/>
                </mxCell>
                <mxCell id="lT9-O1-aTcIDiIvxCzd--40" value="false" style="text;html=1;align=center;verticalAlign=middle;resizable=0;points=[];autosize=1;strokeColor=none;fillColor=none;" vertex="1" parent="7Z-LrOooxTyzb09muiCP-1">
                    <mxGeometry x="520" y="380" width="40" height="20" as="geometry"/>
                </mxCell>
                <mxCell id="lT9-O1-aTcIDiIvxCzd--41" value="true" style="text;html=1;align=center;verticalAlign=middle;resizable=0;points=[];autosize=1;strokeColor=none;fillColor=none;" vertex="1" parent="7Z-LrOooxTyzb09muiCP-1">
                    <mxGeometry x="420" y="450" width="40" height="20" as="geometry"/>
                </mxCell>
                <mxCell id="lT9-O1-aTcIDiIvxCzd--42" value="false" style="text;html=1;align=center;verticalAlign=middle;resizable=0;points=[];autosize=1;strokeColor=none;fillColor=none;" vertex="1" parent="7Z-LrOooxTyzb09muiCP-1">
                    <mxGeometry x="500" y="510" width="40" height="20" as="geometry"/>
                </mxCell>
                <mxCell id="lT9-O1-aTcIDiIvxCzd--43" value="false" style="text;html=1;align=center;verticalAlign=middle;resizable=0;points=[];autosize=1;strokeColor=none;fillColor=none;" vertex="1" parent="7Z-LrOooxTyzb09muiCP-1">
                    <mxGeometry x="776" y="500" width="40" height="20" as="geometry"/>
                </mxCell>
                <mxCell id="lT9-O1-aTcIDiIvxCzd--44" value="false" style="text;html=1;align=center;verticalAlign=middle;resizable=0;points=[];autosize=1;strokeColor=none;fillColor=none;" vertex="1" parent="7Z-LrOooxTyzb09muiCP-1">
                    <mxGeometry x="1156" y="380" width="40" height="20" as="geometry"/>
                </mxCell>
                <mxCell id="lT9-O1-aTcIDiIvxCzd--45" value="false" style="text;html=1;align=center;verticalAlign=middle;resizable=0;points=[];autosize=1;strokeColor=none;fillColor=none;" vertex="1" parent="7Z-LrOooxTyzb09muiCP-1">
                    <mxGeometry x="1156" y="510" width="40" height="20" as="geometry"/>
                </mxCell>
                <mxCell id="lT9-O1-aTcIDiIvxCzd--46" value="false" style="text;html=1;align=center;verticalAlign=middle;resizable=0;points=[];autosize=1;strokeColor=none;fillColor=none;" vertex="1" parent="7Z-LrOooxTyzb09muiCP-1">
                    <mxGeometry x="1415" y="510" width="40" height="20" as="geometry"/>
                </mxCell>
                <mxCell id="lT9-O1-aTcIDiIvxCzd--47" value="true" style="text;html=1;align=center;verticalAlign=middle;resizable=0;points=[];autosize=1;strokeColor=none;fillColor=none;" vertex="1" parent="7Z-LrOooxTyzb09muiCP-1">
                    <mxGeometry x="414" y="575" width="40" height="20" as="geometry"/>
                </mxCell>
                <mxCell id="lT9-O1-aTcIDiIvxCzd--48" value="true" style="text;html=1;align=center;verticalAlign=middle;resizable=0;points=[];autosize=1;strokeColor=none;fillColor=none;" vertex="1" parent="7Z-LrOooxTyzb09muiCP-1">
                    <mxGeometry x="690" y="575" width="40" height="20" as="geometry"/>
                </mxCell>
                <mxCell id="lT9-O1-aTcIDiIvxCzd--49" value="true" style="text;html=1;align=center;verticalAlign=middle;resizable=0;points=[];autosize=1;strokeColor=none;fillColor=none;" vertex="1" parent="7Z-LrOooxTyzb09muiCP-1">
                    <mxGeometry x="1070" y="580" width="40" height="20" as="geometry"/>
                </mxCell>
                <mxCell id="lT9-O1-aTcIDiIvxCzd--50" value="true" style="text;html=1;align=center;verticalAlign=middle;resizable=0;points=[];autosize=1;strokeColor=none;fillColor=none;" vertex="1" parent="7Z-LrOooxTyzb09muiCP-1">
                    <mxGeometry x="1070" y="440" width="40" height="20" as="geometry"/>
                </mxCell>
                <mxCell id="lT9-O1-aTcIDiIvxCzd--51" value="true" style="text;html=1;align=center;verticalAlign=middle;resizable=0;points=[];autosize=1;strokeColor=none;fillColor=none;" vertex="1" parent="7Z-LrOooxTyzb09muiCP-1">
                    <mxGeometry x="1330" y="575" width="40" height="20" as="geometry"/>
                </mxCell>
            </root>
        </mxGraphModel>
    </diagram>
    <diagram id="KjG14Q_7bZ2Fs4syXYFA" name="Top Down">
        <mxGraphModel dx="1074" dy="717" grid="1" gridSize="10" guides="1" tooltips="1" connect="1" arrows="1" fold="1" page="1" pageScale="1" pageWidth="827" pageHeight="1169" math="0" shadow="0">
            <root>
                <mxCell id="0"/>
                <mxCell id="1" parent="0"/>
                <mxCell id="QtO_xw6DOo0jZK6YUWM9-8" value="" style="edgeStyle=none;html=1;" parent="1" source="QtO_xw6DOo0jZK6YUWM9-1" target="QtO_xw6DOo0jZK6YUWM9-3" edge="1">
                    <mxGeometry relative="1" as="geometry"/>
                </mxCell>
                <mxCell id="QtO_xw6DOo0jZK6YUWM9-9" style="edgeStyle=orthogonalEdgeStyle;html=1;entryX=0.5;entryY=0;entryDx=0;entryDy=0;rounded=0;" parent="1" source="QtO_xw6DOo0jZK6YUWM9-1" target="QtO_xw6DOo0jZK6YUWM9-2" edge="1">
                    <mxGeometry relative="1" as="geometry">
                        <Array as="points">
                            <mxPoint x="414" y="160"/>
                            <mxPoint x="260" y="160"/>
                        </Array>
                    </mxGeometry>
                </mxCell>
                <mxCell id="QtO_xw6DOo0jZK6YUWM9-10" style="edgeStyle=orthogonalEdgeStyle;html=1;entryX=0.5;entryY=0;entryDx=0;entryDy=0;rounded=0;" parent="1" source="QtO_xw6DOo0jZK6YUWM9-1" target="QtO_xw6DOo0jZK6YUWM9-4" edge="1">
                    <mxGeometry relative="1" as="geometry">
                        <Array as="points">
                            <mxPoint x="414" y="160"/>
                            <mxPoint x="570" y="160"/>
                        </Array>
                    </mxGeometry>
                </mxCell>
                <mxCell id="QtO_xw6DOo0jZK6YUWM9-1" value="Circumference" style="rounded=0;whiteSpace=wrap;html=1;" parent="1" vertex="1">
                    <mxGeometry x="354" y="80" width="120" height="60" as="geometry"/>
                </mxCell>
                <mxCell id="QtO_xw6DOo0jZK6YUWM9-11" value="" style="edgeStyle=orthogonalEdgeStyle;rounded=0;html=1;" parent="1" source="QtO_xw6DOo0jZK6YUWM9-2" target="QtO_xw6DOo0jZK6YUWM9-5" edge="1">
                    <mxGeometry relative="1" as="geometry"/>
                </mxCell>
                <mxCell id="QtO_xw6DOo0jZK6YUWM9-2" value="Input" style="rounded=0;whiteSpace=wrap;html=1;" parent="1" vertex="1">
                    <mxGeometry x="200" y="180" width="120" height="60" as="geometry"/>
                </mxCell>
                <mxCell id="QtO_xw6DOo0jZK6YUWM9-12" value="" style="edgeStyle=orthogonalEdgeStyle;rounded=0;html=1;" parent="1" source="QtO_xw6DOo0jZK6YUWM9-3" target="QtO_xw6DOo0jZK6YUWM9-6" edge="1">
                    <mxGeometry relative="1" as="geometry"/>
                </mxCell>
                <mxCell id="QtO_xw6DOo0jZK6YUWM9-3" value="Process" style="rounded=0;whiteSpace=wrap;html=1;" parent="1" vertex="1">
                    <mxGeometry x="354" y="180" width="120" height="60" as="geometry"/>
                </mxCell>
                <mxCell id="QtO_xw6DOo0jZK6YUWM9-13" value="" style="edgeStyle=orthogonalEdgeStyle;rounded=0;html=1;" parent="1" source="QtO_xw6DOo0jZK6YUWM9-4" target="QtO_xw6DOo0jZK6YUWM9-7" edge="1">
                    <mxGeometry relative="1" as="geometry"/>
                </mxCell>
                <mxCell id="QtO_xw6DOo0jZK6YUWM9-4" value="output" style="rounded=0;whiteSpace=wrap;html=1;" parent="1" vertex="1">
                    <mxGeometry x="510" y="180" width="120" height="60" as="geometry"/>
                </mxCell>
                <mxCell id="QtO_xw6DOo0jZK6YUWM9-5" value="Get coordinate pair (x and y)" style="rounded=0;whiteSpace=wrap;html=1;" parent="1" vertex="1">
                    <mxGeometry x="200" y="280" width="120" height="60" as="geometry"/>
                </mxCell>
                <mxCell id="QtO_xw6DOo0jZK6YUWM9-6" value="Determine Quadrant" style="rounded=0;whiteSpace=wrap;html=1;" parent="1" vertex="1">
                    <mxGeometry x="354" y="280" width="120" height="60" as="geometry"/>
                </mxCell>
                <mxCell id="QtO_xw6DOo0jZK6YUWM9-7" value="Display quadrant" style="rounded=0;whiteSpace=wrap;html=1;" parent="1" vertex="1">
                    <mxGeometry x="510" y="280" width="120" height="60" as="geometry"/>
                </mxCell>
            </root>
        </mxGraphModel>
    </diagram>
</mxfile>